<svg width="50" height="50" viewBox="0 0 50 50" fill="none" xmlns="http://www.w3.org/2000/svg">
<path d="M45.5832 4.47913L43.0832 5.31246C38.7987 6.80109 34.2234 7.25791 29.7291 6.64579C25.0064 5.9129 20.1726 6.56416 15.8124 8.52079C13.5009 9.50506 11.4723 11.0519 9.9113 13.0204C8.3503 14.9889 7.30649 17.3166 6.87489 19.7916C6.43587 22.1717 6.48078 24.6159 7.00694 26.9783C7.53311 29.3406 8.52974 31.5728 9.93739 33.5416C9.81239 33.9791 9.68739 34.4166 9.58322 34.8541C8.73706 38.4521 8.3175 42.1372 8.33322 45.8333H12.4999C12.6957 42.8079 13.1065 39.8004 13.7291 36.8333C16.6195 38.3941 19.861 39.1902 23.1457 39.1458C26.2092 39.1437 29.2412 38.5274 32.0624 37.3333C47.9166 30.5625 45.8332 8.04163 45.8332 7.10413L45.5832 4.47913ZM30.4374 33.5C24.9999 35.8125 18.4999 35.4166 14.8541 32.5625C15.4702 30.5021 16.3158 28.5174 17.3749 26.6458C18.1982 25.2987 19.1695 24.0479 20.2707 22.9166C21.3959 21.7733 22.6632 20.779 24.0416 19.9583C26.8896 18.2553 30.0482 17.1363 33.3332 16.6666V14.5833C29.5536 14.4525 25.7972 15.2237 22.3749 16.8333C18.8758 18.5407 15.9083 21.1697 13.7916 24.4375C13.0065 25.6855 12.3103 26.9874 11.7082 28.3333C10.7426 25.8632 10.4689 23.1765 10.9166 20.5625C11.2098 18.7323 11.9643 17.007 13.1087 15.5491C14.2532 14.0911 15.7501 12.9486 17.4582 12.2291C19.9491 11.0649 22.6671 10.4672 25.4166 10.4791C26.7082 10.4791 27.9791 10.6041 29.3124 10.7083C33.4881 11.247 37.7277 10.9997 41.8124 9.97913C41.6666 15.7291 40.6249 29.1666 30.4374 33.5Z" fill="black"/>
</svg>
