<svg width="50" height="50" viewBox="0 0 50 50" fill="none" xmlns="http://www.w3.org/2000/svg">
<path d="M43.5834 4.95833C41.2446 4.43451 38.8553 4.16903 36.4584 4.16666C34.1949 4.02294 31.9252 4.32812 29.78 5.06464C27.6348 5.80116 25.6564 6.9545 23.9584 8.45833C21.7223 10.6944 19.5071 12.9236 17.3126 15.1458C14.7918 14.875 8.81261 14.7292 4.81261 18.7708C4.42458 19.1612 4.20679 19.6892 4.20679 20.2396C4.20679 20.79 4.42458 21.318 4.81261 21.7083L28.3543 45.2917C28.7446 45.6797 29.2726 45.8975 29.823 45.8975C30.3734 45.8975 30.9014 45.6797 31.2918 45.2917C35.3543 41.125 35.2293 35.25 34.9793 32.7917L41.6668 26.125C48.3126 19.4792 45.2918 7 45.1668 6.47916C45.0706 6.1034 44.8714 5.76195 44.5917 5.49326C44.312 5.22457 43.9628 5.03931 43.5834 4.95833V4.95833ZM38.6668 23.1875L31.2501 30.5625C31.0099 30.805 30.833 31.1029 30.7349 31.4298C30.6368 31.7568 30.6206 32.1028 30.6876 32.4375C31.1377 35.2246 30.746 38.0826 29.5626 40.6458L9.41677 20.4583C12.0206 19.2599 14.9314 18.8961 17.7501 19.4167C18.0836 19.4601 18.4226 19.4221 18.7383 19.306C19.0539 19.1899 19.3367 18.9992 19.5626 18.75C19.5626 18.75 22.4793 15.7292 26.8751 11.3333C29.5781 9.16274 33.0003 8.09144 36.4584 8.33333C38.0851 8.34139 39.7084 8.48073 41.3126 8.75C41.8126 11.7292 42.6043 19.25 38.6668 23.1875V23.1875Z" fill="black"/>
<path d="M32.7709 21.4583C35.0721 21.4583 36.9376 19.5929 36.9376 17.2917C36.9376 14.9905 35.0721 13.125 32.7709 13.125C30.4697 13.125 28.6042 14.9905 28.6042 17.2917C28.6042 19.5929 30.4697 21.4583 32.7709 21.4583Z" fill="black"/>
<path d="M10.4167 33.3334C6.25 35.4167 6.25 43.75 6.25 43.75C10.1064 43.64 13.7982 42.1633 16.6667 39.5834L10.4167 33.3334Z" fill="black"/>
</svg>
