<svg width="50" height="50" viewBox="0 0 50 50" fill="none" xmlns="http://www.w3.org/2000/svg">
<path d="M25.0001 4.16663C13.5126 4.16663 4.16675 13.5125 4.16675 25V33.6312C4.16675 35.7645 6.0355 37.5 8.33342 37.5H10.4167C10.9693 37.5 11.4992 37.2805 11.8899 36.8898C12.2806 36.4991 12.5001 35.9692 12.5001 35.4166V24.702C12.5001 24.1495 12.2806 23.6196 11.8899 23.2289C11.4992 22.8382 10.9693 22.6187 10.4167 22.6187H8.52508C9.68342 14.5562 16.6209 8.33329 25.0001 8.33329C33.3792 8.33329 40.3168 14.5562 41.4751 22.6187H39.5834C39.0309 22.6187 38.501 22.8382 38.1103 23.2289C37.7196 23.6196 37.5001 24.1495 37.5001 24.702V37.5C37.5001 39.7979 35.6313 41.6666 33.3334 41.6666H29.1667V39.5833H20.8334V45.8333H33.3334C37.9293 45.8333 41.6668 42.0958 41.6668 37.5C43.9647 37.5 45.8334 35.7645 45.8334 33.6312V25C45.8334 13.5125 36.4876 4.16663 25.0001 4.16663Z" fill="black"/>
</svg>
