<svg width="32" height="30" viewBox="0 0 32 30" fill="none" xmlns="http://www.w3.org/2000/svg">
<path d="M23.254 12.1875H21.3162C21.3154 11.4418 21.0089 10.7269 20.4639 10.1996C19.919 9.6723 19.1801 9.37574 18.4094 9.375V7.5C19.6938 7.50149 20.9251 7.99583 21.8333 8.87458C22.7415 9.75334 23.2524 10.9448 23.254 12.1875V12.1875Z" fill="white"/>
<path d="M27.1295 12.1875H25.1917C25.1896 10.4476 24.4744 8.77958 23.2029 7.54931C21.9314 6.31903 20.2075 5.62699 18.4093 5.625V3.75C20.7213 3.75248 22.9378 4.64223 24.5726 6.22403C26.2074 7.80583 27.1269 9.9505 27.1295 12.1875V12.1875ZM25.1917 27.1875H25.027C5.98788 26.1281 3.28462 10.5844 2.90674 5.84063C2.84768 5.09695 3.09634 4.36103 3.59802 3.79474C4.09971 3.22845 4.81332 2.87817 5.58191 2.82094C5.65877 2.81531 5.73596 2.8125 5.81348 2.8125H10.9196C11.3077 2.81214 11.687 2.92454 12.0083 3.13515C12.3297 3.34576 12.5782 3.64488 12.7218 3.99375L14.1946 7.5C14.3364 7.84083 14.3715 8.21445 14.2958 8.57446C14.22 8.93447 14.0365 9.26501 13.7682 9.525L11.7045 11.5406C12.0255 13.3137 12.9024 14.9484 14.2162 16.223C15.53 17.4975 17.2171 18.3503 19.0488 18.6656L21.1513 16.65C21.4241 16.3933 21.7689 16.2199 22.1428 16.1516C22.5167 16.0832 22.9031 16.1229 23.2539 16.2656L26.9067 17.6813C27.2618 17.8246 27.5648 18.067 27.777 18.3775C27.9893 18.688 28.1011 19.0527 28.0984 19.425V24.375C28.0984 25.1209 27.7922 25.8363 27.2471 26.3637C26.7019 26.8912 25.9626 27.1875 25.1917 27.1875ZM5.81348 4.6875C5.68624 4.68713 5.56017 4.71101 5.44247 4.75779C5.32477 4.80456 5.21774 4.8733 5.1275 4.9601C5.03726 5.04689 4.96557 5.15003 4.91652 5.26364C4.86748 5.37724 4.84204 5.49907 4.84166 5.62219C4.84166 5.64844 4.84263 5.67438 4.84456 5.7C5.29026 11.25 8.14855 24.375 25.1336 25.3125C25.39 25.3274 25.642 25.2431 25.8343 25.0782C26.0265 24.9133 26.1432 24.6813 26.1587 24.4331L26.1606 24.375V19.425L22.5078 18.0094L19.727 20.6812L19.262 20.625C10.8324 19.6031 9.68912 11.4469 9.68912 11.3625L9.63098 10.9125L12.3827 8.22188L10.9293 4.6875H5.81348Z" fill="white"/>
</svg>
