<svg width="120" height="21" viewBox="0 0 120 21" fill="none" xmlns="http://www.w3.org/2000/svg">
<g clip-path="url(#clip0_220_348)">
<path d="M120 2.57843C119.251 2.98481 118.457 3.25157 117.643 3.36981C118.491 2.7478 119.141 1.76283 119.447 0.589239C118.642 1.17468 117.761 1.58716 116.842 1.80886C116.093 0.83211 115.027 0.22168 113.847 0.22168C111.581 0.22168 109.743 2.47201 109.743 5.24752C109.743 5.64149 109.78 6.02503 109.85 6.39297C106.44 6.1833 103.416 4.18244 101.392 1.14168C101.039 1.88398 100.837 2.74742 100.837 3.66838C100.837 5.41211 101.561 6.95039 102.662 7.85173C102.011 7.82673 101.373 7.61116 100.804 7.22302C100.803 7.24407 100.803 7.26512 100.803 7.28627C100.803 9.72139 102.218 11.7528 104.095 12.2145C103.491 12.4158 102.857 12.4452 102.242 12.3006C102.764 14.2974 104.279 15.7504 106.075 15.7911C104.67 17.139 102.901 17.9425 100.979 17.9425C100.648 17.9425 100.321 17.9187 100 17.8723C101.816 19.2983 103.973 20.1304 106.29 20.1304C113.837 20.1304 117.964 12.4719 117.964 5.83039C117.964 5.6124 117.96 5.39565 117.953 5.18015C118.756 4.46884 119.449 3.58782 120 2.57843" fill="#55ACEE"/>
</g>
<g clip-path="url(#clip1_220_348)">
<path d="M67.0409 17.1843H64.0776V12.5434C64.0776 11.4368 64.0578 10.0122 62.5363 10.0122C60.9929 10.0122 60.7567 11.218 60.7567 12.4629V17.184H57.7934V7.64054H60.6382V8.94476H60.678C60.9627 8.45796 61.3741 8.0575 61.8684 7.78602C62.3627 7.51454 62.9214 7.3822 63.4849 7.40311C66.4884 7.40311 67.0422 9.37874 67.0422 11.9489L67.0409 17.1843V17.1843ZM54.4497 6.33608C53.4999 6.33624 52.7298 5.5664 52.7297 4.61663C52.7295 3.66687 53.4993 2.89679 54.4491 2.89663C55.3988 2.8964 56.1689 3.66624 56.1691 4.61601C56.1691 5.0721 55.988 5.50955 55.6656 5.83213C55.3432 6.1547 54.9058 6.33598 54.4497 6.33608V6.33608ZM55.9314 17.1844H52.9649V7.64054H55.9313V17.1843L55.9314 17.1844ZM68.5183 0.144522H51.4759C50.6704 0.13546 50.0098 0.780694 50 1.58616V18.6997C50.0095 19.5055 50.67 20.1514 51.4758 20.143H68.5183C69.3258 20.153 69.9888 19.5071 70 18.6997V1.58483C69.9885 0.777803 69.3254 0.132647 68.5183 0.143194" fill="#0A66C2"/>
</g>
<g clip-path="url(#clip2_220_348)">
<path fill-rule="evenodd" clip-rule="evenodd" d="M6.22075 0.197822C7.19825 0.152822 7.50992 0.142822 9.99992 0.142822C12.4899 0.142822 12.8016 0.153656 13.7783 0.197822C14.7549 0.241989 15.4216 0.397822 16.0049 0.623656C16.6157 0.854489 17.1699 1.21532 17.6283 1.68199C18.0949 2.13949 18.4549 2.69282 18.6849 3.30449C18.9116 3.88782 19.0666 4.55449 19.1116 5.52949C19.1566 6.50866 19.1666 6.82032 19.1666 9.30949C19.1666 11.7995 19.1558 12.1112 19.1116 13.0887C19.0674 14.0637 18.9116 14.7303 18.6849 15.3137C18.4549 15.9254 18.0943 16.4797 17.6283 16.9378C17.1699 17.4045 16.6157 17.7645 16.0049 17.9945C15.4216 18.2212 14.7549 18.3762 13.7799 18.4212C12.8016 18.4662 12.4899 18.4762 9.99992 18.4762C7.50992 18.4762 7.19825 18.4653 6.22075 18.4212C5.24575 18.377 4.57908 18.2212 3.99575 17.9945C3.38402 17.7645 2.82977 17.4039 2.37159 16.9378C1.90524 16.48 1.54435 15.9261 1.31409 15.3145C1.08825 14.7312 0.933252 14.0645 0.888252 13.0895C0.843252 12.1103 0.833252 11.7987 0.833252 9.30949C0.833252 6.81949 0.844085 6.50782 0.888252 5.53116C0.932419 4.55449 1.08825 3.88782 1.31409 3.30449C1.54469 2.69289 1.90585 2.13892 2.37242 1.68116C2.82995 1.21491 3.38365 0.854025 3.99492 0.623656C4.57825 0.397822 5.24575 0.242822 6.22075 0.197822ZM13.7041 1.84782C12.7374 1.80366 12.4474 1.79449 9.99992 1.79449C7.55242 1.79449 7.26242 1.80366 6.29575 1.84782C5.40158 1.88866 4.91659 2.03782 4.59325 2.16366C4.16575 2.33032 3.85992 2.52782 3.53909 2.84866C3.23496 3.14453 3.0009 3.50472 2.85408 3.90282C2.72825 4.22616 2.57909 4.71115 2.53825 5.60532C2.49409 6.57199 2.48492 6.86199 2.48492 9.30949C2.48492 11.757 2.49409 12.047 2.53825 13.0137C2.57909 13.9078 2.72825 14.3928 2.85408 14.7162C3.00075 15.1137 3.23492 15.4745 3.53909 15.7703C3.83492 16.0745 4.19575 16.3087 4.59325 16.4553C4.91659 16.5812 5.40158 16.7303 6.29575 16.7712C7.26242 16.8153 7.55158 16.8245 9.99992 16.8245C12.4483 16.8245 12.7374 16.8153 13.7041 16.7712C14.5982 16.7303 15.0833 16.5812 15.4066 16.4553C15.8341 16.2887 16.1399 16.0912 16.4608 15.7703C16.7649 15.4745 16.9991 15.1137 17.1458 14.7162C17.2716 14.3928 17.4208 13.9078 17.4616 13.0137C17.5058 12.047 17.5149 11.757 17.5149 9.30949C17.5149 6.86199 17.5058 6.57199 17.4616 5.60532C17.4208 4.71115 17.2716 4.22616 17.1458 3.90282C16.9791 3.47532 16.7816 3.16949 16.4608 2.84866C16.1649 2.54455 15.8047 2.3105 15.4066 2.16366C15.0833 2.03782 14.5982 1.88866 13.7041 1.84782ZM8.82908 12.1353C9.48297 12.4075 10.2111 12.4443 10.889 12.2393C11.567 12.0343 12.1527 11.6003 12.5463 11.0114C12.9398 10.4225 13.1166 9.71521 13.0466 9.01041C12.9766 8.3056 12.6641 7.64697 12.1624 7.14699C11.8426 6.82739 11.4559 6.58267 11.0302 6.43044C10.6045 6.27822 10.1503 6.22229 9.70033 6.26667C9.25039 6.31105 8.81588 6.45464 8.42809 6.6871C8.0403 6.91956 7.70887 7.23511 7.45767 7.61103C7.20647 7.98695 7.04174 8.4139 6.97535 8.86112C6.90895 9.30835 6.94254 9.76473 7.0737 10.1974C7.20486 10.6301 7.43032 11.0283 7.73385 11.3634C8.03738 11.6985 8.41144 11.9621 8.82908 12.1353ZM6.66825 5.97782C7.10577 5.5403 7.62518 5.19324 8.19683 4.95646C8.76848 4.71967 9.38117 4.5978 9.99992 4.5978C10.6187 4.5978 11.2314 4.71967 11.803 4.95646C12.3747 5.19324 12.8941 5.5403 13.3316 5.97782C13.7691 6.41534 14.1162 6.93476 14.3529 7.5064C14.5897 8.07805 14.7116 8.69074 14.7116 9.30949C14.7116 9.92824 14.5897 10.5409 14.3529 11.1126C14.1162 11.6842 13.7691 12.2036 13.3316 12.6412C12.448 13.5248 11.2495 14.0212 9.99992 14.0212C8.7503 14.0212 7.55186 13.5248 6.66825 12.6412C5.78464 11.7575 5.28823 10.5591 5.28823 9.30949C5.28823 8.05987 5.78464 6.86143 6.66825 5.97782ZM15.7566 5.29949C15.865 5.19721 15.9518 5.07422 16.0118 4.9378C16.0719 4.80138 16.1039 4.6543 16.1061 4.50526C16.1083 4.35623 16.0805 4.20828 16.0245 4.07016C15.9685 3.93205 15.8853 3.80658 15.7799 3.70119C15.6745 3.59579 15.549 3.51262 15.4109 3.45659C15.2728 3.40055 15.1248 3.3728 14.9758 3.37497C14.8268 3.37715 14.6797 3.4092 14.5433 3.46924C14.4069 3.52927 14.2839 3.61607 14.1816 3.72449C13.9827 3.93535 13.8738 4.21542 13.878 4.50526C13.8822 4.7951 13.9992 5.07189 14.2042 5.27686C14.4092 5.48183 14.686 5.59885 14.9758 5.60307C15.2656 5.6073 15.5457 5.4984 15.7566 5.29949Z" fill="#0A66C2"/>
</g>
<defs>
<clipPath id="clip0_220_348">
<rect width="20" height="20" fill="white" transform="translate(100 0.143066)"/>
</clipPath>
<clipPath id="clip1_220_348">
<rect width="20" height="20" fill="white" transform="translate(50 0.143066)"/>
</clipPath>
<clipPath id="clip2_220_348">
<rect width="20" height="20" fill="white" transform="translate(0 0.143066)"/>
</clipPath>
</defs>
</svg>
