<svg width="367" height="53" viewBox="0 0 367 53" fill="none" xmlns="http://www.w3.org/2000/svg">
<g clip-path="url(#clip0_220_314)">
<path fill-rule="evenodd" clip-rule="evenodd" d="M151.182 31.9626C150.541 31.6522 147.395 30.1563 146.809 29.948C146.224 29.7418 145.797 29.6397 145.369 30.2605C144.943 30.8772 143.717 32.273 143.345 32.6855C142.97 33.1001 142.598 33.1501 141.958 32.8418C141.319 32.5293 139.256 31.8772 136.812 29.7688C134.911 28.1272 133.626 26.1001 133.253 25.4793C132.881 24.8605 133.212 24.5251 133.533 24.2168C133.822 23.9397 134.173 23.4938 134.493 23.1334C134.814 22.7709 134.92 22.5126 135.133 22.098C135.348 21.6855 135.241 21.3251 135.079 21.0147C134.92 20.7043 133.641 17.6563 133.107 16.4168C132.588 15.2105 132.06 15.3751 131.669 15.3543C131.294 15.3376 130.868 15.3334 130.441 15.3334C130.015 15.3334 129.322 15.4876 128.736 16.1084C128.148 16.7272 126.497 18.2251 126.497 21.273C126.497 24.3188 128.788 27.2626 129.108 27.6772C129.429 28.0897 133.619 34.3438 140.038 37.0251C141.566 37.6626 142.757 38.0438 143.685 38.3272C145.218 38.8001 146.613 38.7334 147.716 38.573C148.943 38.3959 151.501 37.0751 152.035 35.6292C152.567 34.1834 152.567 32.9438 152.408 32.6855C152.248 32.4272 151.822 32.273 151.18 31.9626H151.182ZM139.508 47.3855H139.499C135.687 47.3862 131.945 46.3946 128.665 44.5147L127.89 44.0688L119.833 46.1147L121.984 38.5147L121.478 37.7355C119.346 34.4529 118.219 30.6538 118.224 26.7772C118.229 15.423 127.776 6.1855 139.517 6.1855C145.201 6.1855 150.545 8.33134 154.563 12.223C156.545 14.1325 158.115 16.4033 159.184 18.904C160.253 21.4047 160.799 24.0857 160.79 26.7918C160.785 38.1459 151.238 47.3855 139.508 47.3855V47.3855ZM157.62 9.26675C155.248 6.95618 152.425 5.12412 149.316 3.87675C146.206 2.62938 142.872 1.99151 139.506 2.00009C125.394 2.00009 113.905 13.1147 113.901 26.7751C113.894 31.1225 115.073 35.3946 117.318 39.1605L113.686 52.0001L127.259 48.5542C131.014 50.5337 135.221 51.5708 139.497 51.5709H139.508C153.62 51.5709 165.109 40.4563 165.113 26.7938C165.124 23.5382 164.467 20.3128 163.181 17.3043C161.894 14.2958 160.005 11.564 157.62 9.26675" fill="white"/>
</g>
<path fill-rule="evenodd" clip-rule="evenodd" d="M16.0731 4.221C18.5987 4.1085 19.404 4.0835 25.8376 4.0835C32.2711 4.0835 33.0764 4.11058 35.5999 4.221C38.1234 4.33141 39.8459 4.721 41.3531 5.28558C42.9313 5.86266 44.3631 6.76475 45.5474 7.93141C46.7531 9.07516 47.6833 10.4585 48.2775 11.9877C48.8632 13.446 49.2637 15.1127 49.3799 17.5502C49.4962 19.9981 49.522 20.7772 49.522 27.0002C49.522 33.2252 49.4941 34.0043 49.3799 36.4481C49.2658 38.8856 48.8632 40.5522 48.2775 42.0106C47.6833 43.5399 46.7516 44.9256 45.5474 46.071C44.3631 47.2377 42.9313 48.1377 41.3531 48.7127C39.8459 49.2793 38.1233 49.6668 35.6042 49.7793C33.0764 49.8918 32.2711 49.9168 25.8376 49.9168C19.404 49.9168 18.5987 49.8897 16.0731 49.7793C13.5539 49.6689 11.8314 49.2793 10.3242 48.7127C8.74365 48.1376 7.3116 47.2361 6.12776 46.071C4.92283 44.9266 3.99038 43.5416 3.39544 42.0127C2.81194 40.5543 2.41145 38.8877 2.29518 36.4502C2.17891 34.0022 2.15308 33.2231 2.15308 27.0002C2.15308 20.7752 2.18107 19.996 2.29518 17.5543C2.4093 15.1127 2.81194 13.446 3.39544 11.9877C3.99126 10.4587 4.92442 9.07373 6.12992 7.92933C7.31207 6.76371 8.74269 5.8615 10.3221 5.28558C11.8293 4.721 13.5518 4.3335 16.0709 4.221H16.0731ZM35.4082 8.346C32.9106 8.23558 32.1613 8.21266 25.8376 8.21266C19.5138 8.21266 18.7645 8.23558 16.2669 8.346C13.9566 8.44808 12.7034 8.821 11.868 9.13558C10.7635 9.55225 9.97326 10.046 9.14431 10.8481C8.35851 11.5878 7.75377 12.4883 7.37443 13.4835C7.04931 14.2918 6.66389 15.5043 6.55839 17.7397C6.44427 20.1564 6.42059 20.8814 6.42059 27.0002C6.42059 33.1189 6.44427 33.8439 6.55839 36.2606C6.66389 38.496 7.04931 39.7085 7.37443 40.5168C7.75338 41.5106 8.35841 42.4127 9.14431 43.1522C9.90867 43.9127 10.841 44.4981 11.868 44.8648C12.7034 45.1793 13.9566 45.5523 16.2669 45.6543C18.7645 45.7648 19.5117 45.7877 25.8376 45.7877C32.1635 45.7877 32.9106 45.7648 35.4082 45.6543C37.7186 45.5523 38.9717 45.1793 39.8071 44.8648C40.9117 44.4481 41.7019 43.9543 42.5308 43.1522C43.3167 42.4127 43.9217 41.5106 44.3007 40.5168C44.6258 39.7085 45.0112 38.496 45.1167 36.2606C45.2309 33.8439 45.2545 33.1189 45.2545 27.0002C45.2545 20.8814 45.2309 20.1564 45.1167 17.7397C45.0112 15.5043 44.6258 14.2918 44.3007 13.4835C43.8701 12.4147 43.3598 11.6502 42.5308 10.8481C41.7663 10.0878 40.8357 9.50269 39.8071 9.13558C38.9717 8.821 37.7186 8.44808 35.4082 8.346V8.346ZM22.8124 34.0647C24.5019 34.7452 26.3831 34.8371 28.1348 34.3246C29.8865 33.8121 31.4 32.7271 32.4167 31.2548C33.4335 29.7826 33.8904 28.0145 33.7095 26.2525C33.5286 24.4905 32.7211 22.8439 31.4249 21.5939C30.5987 20.7949 29.5995 20.1831 28.4996 19.8026C27.3996 19.422 26.226 19.2822 25.0635 19.3931C23.9009 19.5041 22.7783 19.863 21.7763 20.4442C20.7744 21.0253 19.918 21.8142 19.269 22.754C18.62 23.6938 18.1943 24.7612 18.0228 25.8792C17.8512 26.9973 17.938 28.1383 18.2769 29.22C18.6158 30.3017 19.1983 31.2973 19.9826 32.135C20.7668 32.9727 21.7333 33.6318 22.8124 34.0647ZM17.2293 18.671C18.3598 17.5772 19.7018 16.7095 21.1788 16.1176C22.6558 15.5256 24.2389 15.2209 25.8376 15.2209C27.4363 15.2209 29.0193 15.5256 30.4963 16.1176C31.9733 16.7095 33.3153 17.5772 34.4458 18.671C35.5762 19.7648 36.473 21.0633 37.0848 22.4925C37.6966 23.9216 38.0114 25.4533 38.0114 27.0002C38.0114 28.547 37.6966 30.0788 37.0848 31.5079C36.473 32.937 35.5762 34.2355 34.4458 35.3293C32.1628 37.5384 29.0663 38.7794 25.8376 38.7794C22.6088 38.7794 19.5124 37.5384 17.2293 35.3293C14.9463 33.1203 13.6637 30.1242 13.6637 27.0002C13.6637 23.8761 14.9463 20.88 17.2293 18.671V18.671ZM40.7114 16.9752C40.9916 16.7195 41.2158 16.412 41.3709 16.0709C41.526 15.7299 41.6089 15.3622 41.6145 14.9896C41.6201 14.617 41.5484 14.2471 41.4036 13.9019C41.2588 13.5566 41.0439 13.2429 40.7716 12.9794C40.4993 12.7159 40.1751 12.508 39.8183 12.3679C39.4614 12.2278 39.0791 12.1584 38.6941 12.1639C38.309 12.1693 37.929 12.2494 37.5765 12.3995C37.224 12.5496 36.9062 12.7666 36.642 13.0377C36.1281 13.5648 35.8467 14.265 35.8576 14.9896C35.8685 15.7142 36.1709 16.4062 36.7005 16.9186C37.2301 17.431 37.9452 17.7236 38.6941 17.7341C39.443 17.7447 40.1666 17.4724 40.7114 16.9752V16.9752Z" fill="white"/>
<g clip-path="url(#clip1_220_314)">
<path d="M233.783 50V26.5386H227.371V18.0913H233.783V10.8762C233.783 5.2066 237.57 0 246.297 0C249.83 0 252.443 0.32775 252.443 0.32775L252.237 8.21605C252.237 8.21605 249.572 8.19095 246.665 8.19095C243.518 8.19095 243.013 9.5942 243.013 11.9232V18.0913H252.487L252.075 26.5386H243.013V50H233.783Z" fill="white"/>
</g>
<g clip-path="url(#clip2_220_314)">
<path d="M366.126 13.2856C364.328 14.0565 362.396 14.5773 360.366 14.8127C362.461 13.5998 364.028 11.6908 364.776 9.44187C362.807 10.5731 360.653 11.3694 358.407 11.796C356.896 10.2353 354.895 9.20088 352.714 8.85327C350.534 8.50566 348.296 8.86435 346.347 9.87364C344.399 10.8829 342.85 12.4864 341.94 14.435C341.03 16.3836 340.81 18.5684 341.315 20.6502C337.327 20.4564 333.425 19.4534 329.863 17.7063C326.302 15.9591 323.16 13.5068 320.641 10.5085C319.779 11.946 319.284 13.6127 319.284 15.3877C319.283 16.9856 319.69 18.559 320.468 19.9684C321.246 21.3777 322.372 22.5794 323.745 23.4669C322.153 23.4178 320.595 23.0014 319.202 22.2523V22.3773C319.202 24.6184 320.003 26.7906 321.47 28.5252C322.937 30.2598 324.978 31.4501 327.249 31.894C325.771 32.2809 324.222 32.3379 322.718 32.0606C323.359 33.989 324.607 35.6753 326.287 36.8834C327.967 38.0915 329.996 38.761 332.089 38.7981C328.536 41.4969 324.148 42.9608 319.631 42.9544C318.831 42.9546 318.031 42.9094 317.237 42.819C321.822 45.6714 327.159 47.1852 332.61 47.1794C351.062 47.1794 361.15 32.3919 361.15 19.5669C361.15 19.1502 361.139 18.7294 361.12 18.3127C363.082 16.9397 364.775 15.2396 366.121 13.2919L366.126 13.2856V13.2856Z" fill="white"/>
</g>
<defs>
<clipPath id="clip0_220_314">
<rect width="51.6752" height="50" fill="white" transform="translate(113.686 2)"/>
</clipPath>
<clipPath id="clip1_220_314">
<rect width="25.1161" height="50" fill="white" transform="translate(227.371)"/>
</clipPath>
<clipPath id="clip2_220_314">
<rect width="51.6752" height="50" fill="white" transform="translate(315.219 3)"/>
</clipPath>
</defs>
</svg>
